<svg style="fill-rule: evenodd; pointer-events: none; width: 100%; height: 100%; "><g transform="matrix(0.05 0 0 0.05 0 0)"><g display="inline" opacity="1.000" transform="matrix(1 0 0 1 0 0)"><g display="inline" opacity="1.000" transform="matrix(1 0 0 1 753 0)"><path d="m 317 179 q 0 -9 0 -17 q -13 -149 -135 -162 q -122 15 -131 165 q 0 40 15 73 q -63 34 -66 108 q 10 110 120 120 q 18 0 34 -5 v 415 q -2 8 41 16 q 42 -8 38 -16 v -70 v -356 q 9 1 19 1 q 132 -12 144 -144 q -4 -88 -79 -128" fill="rgb(0,0,0)" fill-opacity="1.000"></path></g><g display="inline" opacity="1.000" transform="matrix(1 0 0 1 944 442)"><path d="m 323 204 q -27 -100 -156 -147 q -129 -47 -147 -47 q -1 4 -8 73 q -6 69 0 154 q 11 81 66 118 q 55 36 108 32 q 52 -4 97 -49 q 44 -45 40 -134 m -197 52 q -16 13 -22 14 q -6 0 -30 -33 q -14 -43 -10 -53 l 35 -10 q 1 7 18 36 q 20 25 23 27 q -2 4 -14 19" stroke="rgb(255,255,255)" stroke-opacity="1.000" stroke-width="18" stroke-linecap="round" stroke-linejoin="round" fill="rgb(0,0,0)" fill-opacity="1.000"></path></g><g display="inline" opacity="1.000" transform="matrix(1 0 0 1 0 1101)"><path d="m 60 120 q 55 -5 60 -60 q -5 -55 -60 -60 q -55 5 -60 60 q 5 55 60 60" fill="rgb(0,0,0)" fill-opacity="1.000"></path></g><g display="inline" opacity="1.000" transform="matrix(1 0 0 1 55 820)"><path d="m 5 341 l 606 -332" stroke="rgb(0,0,0)" stroke-opacity="1.000" stroke-width="20" stroke-linecap="round" stroke-linejoin="round" fill="none"></path></g></g></g><defs></defs></svg>