<?xml version="1.0" encoding="utf-8"?>
<!-- Generator: Adobe Illustrator 15.0.0, SVG Export Plug-In . SVG Version: 6.00 Build 0)  -->
<!DOCTYPE svg PUBLIC "-//W3C//DTD SVG 1.1//EN" "http://www.w3.org/Graphics/SVG/1.1/DTD/svg11.dtd">
<svg version="1.1" id="Layer_1" xmlns="http://www.w3.org/2000/svg" xmlns:xlink="http://www.w3.org/1999/xlink" x="0px" y="0px"
	 width="98.692px" height="83.125px" viewBox="0 0 98.692 83.125" enable-background="new 0 0 98.692 83.125" xml:space="preserve">
<g>
	<g>
		<g>
			<path fill="#FFFFFF" stroke="#000000" stroke-miterlimit="10" d="M31.282,18.998c-0.041-0.819,0.589-1.516,1.407-1.557
				l38.588-1.924c0.816-0.043,1.515,0.588,1.556,1.407l2.481,49.773c0.041,0.819-0.588,1.516-1.408,1.556L35.32,70.18
				c-0.818,0.041-1.516-0.591-1.556-1.409L31.282,18.998z"/>
			
				<line fill="none" stroke="#000000" stroke-linecap="round" stroke-miterlimit="10" x1="71.545" y1="60.057" x2="38.165" y2="61.722"/>
			
				<line fill="none" stroke="#000000" stroke-linecap="round" stroke-miterlimit="10" x1="71.319" y1="55.515" x2="37.939" y2="57.177"/>
			
				<line fill="none" stroke="#000000" stroke-linecap="round" stroke-miterlimit="10" x1="71.102" y1="51.167" x2="37.722" y2="52.832"/>
			
				<line fill="none" stroke="#000000" stroke-linecap="round" stroke-miterlimit="10" x1="70.877" y1="46.625" x2="37.495" y2="48.287"/>
		</g>
		
			<line fill="none" stroke="#000000" stroke-linecap="round" stroke-miterlimit="10" x1="70.66" y1="42.279" x2="37.278" y2="43.942"/>
		
			<line fill="none" stroke="#000000" stroke-linecap="round" stroke-miterlimit="10" x1="70.434" y1="37.735" x2="37.051" y2="39.401"/>
		
			<line fill="none" stroke="#000000" stroke-linecap="round" stroke-miterlimit="10" x1="70.217" y1="33.391" x2="36.835" y2="35.056"/>
		
			<line fill="none" stroke="#000000" stroke-linecap="round" stroke-miterlimit="10" x1="69.989" y1="28.849" x2="36.607" y2="30.512"/>
		
			<line fill="none" stroke="#000000" stroke-linecap="round" stroke-miterlimit="10" x1="69.782" y1="24.7" x2="36.401" y2="26.365"/>
		
			<line fill="none" stroke="#000000" stroke-linecap="round" stroke-miterlimit="10" x1="69.557" y1="20.156" x2="36.175" y2="21.821"/>
	</g>
	<g>
		<g>
			<path fill="#FFFFFF" stroke="#000000" stroke-miterlimit="10" d="M31.473,20.344c-0.107-0.812,0.464-1.559,1.276-1.664
				l38.301-5.064c0.813-0.107,1.559,0.463,1.667,1.275l6.532,49.406c0.107,0.813-0.466,1.559-1.278,1.666l-38.299,5.065
				c-0.814,0.106-1.561-0.464-1.666-1.279L31.473,20.344z"/>
			<g>
				<g>
					<path d="M73.736,53.093c-11.044,1.461-22.089,2.921-33.133,4.381c-1.586,0.21,0.587,0.847,1.232,0.762
						c11.044-1.461,22.089-2.921,33.133-4.381C76.555,53.645,74.382,53.008,73.736,53.093L73.736,53.093z"/>
				</g>
			</g>
			<g>
				<g>
					<path d="M73.214,48.645c-11.046,1.461-22.091,2.921-33.137,4.382c-1.607,0.213,0.374,1.133,1.143,1.031
						c11.046-1.46,22.091-2.921,33.137-4.382C75.964,49.463,73.982,48.543,73.214,48.645L73.214,48.645z"/>
				</g>
			</g>
			<g>
				<g>
					<path d="M72.54,43.874c-11.044,1.461-22.088,2.921-33.133,4.381c-1.434,0.19,0.43,1.668,1.293,1.555
						c11.044-1.461,22.088-2.921,33.133-4.381C75.267,45.238,73.403,43.761,72.54,43.874L72.54,43.874z"/>
				</g>
			</g>
		</g>
		<g>
			<g>
				<path d="M72.094,39.574c-11.044,1.461-22.089,2.921-33.133,4.381c-1.623,0.215-0.027,1.665,1.043,1.523
					c11.045-1.461,22.09-2.921,33.135-4.381C74.761,40.883,73.165,39.433,72.094,39.574L72.094,39.574z"/>
			</g>
		</g>
		<g>
			<g>
				<path d="M72.061,34.983c-11.044,1.461-22.089,2.922-33.133,4.383c-1.324,0.175-1.718,1.902-0.08,1.686
					c11.044-1.461,22.089-2.922,33.133-4.383C73.305,36.494,73.698,34.767,72.061,34.983L72.061,34.983z"/>
			</g>
		</g>
		<g>
			<g>
				<path d="M71.22,30.4c-11.045,1.459-22.091,2.919-33.136,4.379c-1.609,0.212-0.998,2.428,0.465,2.234
					c11.045-1.459,22.091-2.919,33.136-4.379C73.294,32.423,72.683,30.207,71.22,30.4L71.22,30.4z"/>
			</g>
		</g>
		<g>
			<g>
				<path d="M70.106,26.005c-11.046,1.46-22.091,2.92-33.136,4.381c0.143-0.02,0.903,2.079,1.498,2
					c11.046-1.46,22.091-2.92,33.136-4.38C71.462,28.025,70.701,25.927,70.106,26.005L70.106,26.005z"/>
			</g>
		</g>
		<g>
			<g>
				<path d="M69.521,22.391c-11.045,1.46-22.09,2.921-33.135,4.382c-1.232,0.163,1.032,1.066,1.578,0.994
					c11.045-1.46,22.09-2.921,33.135-4.382C72.332,23.222,70.067,22.318,69.521,22.391L69.521,22.391z"/>
			</g>
		</g>
	</g>
</g>
</svg>
