<?xml version="1.0" encoding="utf-8"?>
<!-- Generator: Adobe Illustrator 15.0.0, SVG Export Plug-In . SVG Version: 6.00 Build 0)  -->
<!DOCTYPE svg PUBLIC "-//W3C//DTD SVG 1.1//EN" "http://www.w3.org/Graphics/SVG/1.1/DTD/svg11.dtd">
<svg version="1.1" id="Layer_1" xmlns="http://www.w3.org/2000/svg" xmlns:xlink="http://www.w3.org/1999/xlink" x="0px" y="0px"
	 width="83.823px" height="69.118px" viewBox="0 0 83.823 69.118" enable-background="new 0 0 83.823 69.118" xml:space="preserve">
<g>
	
		<rect x="26.257" y="20.463" transform="matrix(0.985 0.1725 -0.1725 0.985 6.6137 -7.2494)" fill="#FFFFFF" stroke="#36A9E1" stroke-miterlimit="10" width="37.515" height="27.926"/>
	
		<rect x="28.528" y="22.879" transform="matrix(0.985 0.1724 -0.1724 0.985 6.3942 -7.299)" fill="#36A9E1" width="33.373" height="20.561"/>
	<path fill="#FFFFFF" d="M43.323,28.05c-0.77,0.083-0.851,3.85-1.983,7.923c-0.509,1.818,7.078-1.516,7.189-2.149
		C48.623,33.276,44.093,27.963,43.323,28.05z"/>
	<line fill="#FFFFFF" stroke="#36A9E1" stroke-miterlimit="10" x1="28.43" y1="43.18" x2="57.432" y2="48.254"/>
	<path fill="#36A9E1" d="M29.79,42.015c0,0-0.585,2.349-0.047,2.583c0.538,0.233,0.832-2.445,0.832-2.445L29.79,42.015z"/>
</g>
</svg>
