<?xml version="1.0" encoding="utf-8"?>
<!-- Generator: Adobe Illustrator 15.0.0, SVG Export Plug-In . SVG Version: 6.00 Build 0)  -->
<!DOCTYPE svg PUBLIC "-//W3C//DTD SVG 1.1//EN" "http://www.w3.org/Graphics/SVG/1.1/DTD/svg11.dtd">
<svg version="1.1" id="Layer_1" xmlns="http://www.w3.org/2000/svg" xmlns:xlink="http://www.w3.org/1999/xlink" x="0px" y="0px"
	 width="98.692px" height="83.125px" viewBox="0 0 98.692 83.125" enable-background="new 0 0 98.692 83.125" xml:space="preserve">
<g>
	
		<rect x="18.274" y="20.037" transform="matrix(1 -0.006 0.006 1 -0.267 0.3088)" fill="#FFFFFF" stroke="#000000" stroke-miterlimit="10" width="66.015" height="49.145"/>
	<rect x="21.87" y="24.268" transform="matrix(1 -0.006 0.006 1 -0.252 0.3066)" width="58.722" height="36.178"/>
	<path fill="#FFFFFF" stroke="#000000" stroke-miterlimit="10" d="M46.352,34.101c-1.308,0.389-0.265,6.937-0.948,14.345
		c-0.309,3.31,11.779-4.849,11.774-5.979C57.173,41.485,47.658,33.711,46.352,34.101z"/>
	
		<line fill="none" stroke="#000000" stroke-linecap="round" stroke-miterlimit="10" x1="25.312" y1="64.971" x2="77.122" y2="64.659"/>
	<path d="M27.301,62.531c0,0-0.274,4.249,0.729,4.486c1.006,0.235,0.676-4.494,0.676-4.494L27.301,62.531z"/>
</g>
</svg>
