<?xml version="1.0" encoding="utf-8"?>
<!-- Generator: Adobe Illustrator 15.0.0, SVG Export Plug-In . SVG Version: 6.00 Build 0)  -->
<!DOCTYPE svg PUBLIC "-//W3C//DTD SVG 1.1//EN" "http://www.w3.org/Graphics/SVG/1.1/DTD/svg11.dtd">
<svg version="1.1" id="Layer_1" xmlns="http://www.w3.org/2000/svg" xmlns:xlink="http://www.w3.org/1999/xlink" x="0px" y="0px"
	 width="83.823px" height="69.118px" viewBox="0 0 83.823 69.118" enable-background="new 0 0 83.823 69.118" xml:space="preserve">
<g>
	<g>
		
			<rect x="32.165" y="21.709" transform="matrix(0.9957 0.0931 -0.0931 0.9957 3.3964 -3.8649)" fill="#FFFFFF" stroke="#36A9E1" stroke-width="0.75" stroke-miterlimit="10" width="21.883" height="25.495"/>
		
			<rect x="33.738" y="23.916" transform="matrix(0.9957 0.0931 -0.0931 0.9957 3.2273 -3.8779)" fill="#FFFFFF" stroke="#36A9E1" stroke-width="0.75" stroke-miterlimit="10" width="18.869" height="17.465"/>
	</g>
	<g>
		
			<rect x="32.497" y="21.843" transform="matrix(0.9464 0.323 -0.323 0.9464 13.5029 -12.1775)" fill="#FFFFFF" stroke="#36A9E1" stroke-width="0.75" stroke-miterlimit="10" width="21.881" height="25.495"/>
		
			<rect x="34.491" y="24.114" transform="matrix(0.9464 0.3231 -0.3231 0.9464 12.9667 -12.4295)" fill="#FFFFFF" stroke="#36A9E1" stroke-width="0.75" stroke-miterlimit="10" width="18.872" height="17.466"/>
	</g>
	<g>
		
			<rect x="34.58" y="21.811" transform="matrix(0.9035 0.4286 -0.4286 0.9035 19.2072 -16.1764)" fill="#FFFFFF" stroke="#36A9E1" stroke-width="0.75" stroke-miterlimit="10" width="21.883" height="25.495"/>
		
			<rect x="36.769" y="24.15" transform="matrix(0.9035 0.4286 -0.4286 0.9035 18.5536 -16.6307)" fill="#36A9E1" width="18.872" height="17.467"/>
	</g>
	<path fill="#FFFFFF" stroke="#36A9E1" stroke-width="0.75" stroke-miterlimit="10" d="M42.082,22.138
		c0.175-0.184,15.306,6.752,14.973,7.641c-0.714,1.919-2.635,5.846-3.163,6.865c-0.775,1.488-3.301,7.31-4.165,6.875
		c-0.863-0.436,1.896-5.036,3.077-7.462c0.754-1.552,2.452-4.116,2.159-5.926C54.656,28.231,40.877,23.402,42.082,22.138z"/>
</g>
</svg>
