<?xml version="1.0" encoding="utf-8"?>
<!-- Generator: Adobe Illustrator 15.0.0, SVG Export Plug-In . SVG Version: 6.00 Build 0)  -->
<!DOCTYPE svg PUBLIC "-//W3C//DTD SVG 1.1//EN" "http://www.w3.org/Graphics/SVG/1.1/DTD/svg11.dtd">
<svg version="1.1" id="Layer_1" xmlns="http://www.w3.org/2000/svg" xmlns:xlink="http://www.w3.org/1999/xlink" x="0px" y="0px"
	 width="98.692px" height="83.125px" viewBox="0 0 98.692 83.125" enable-background="new 0 0 98.692 83.125" xml:space="preserve">
<g>
	<g>
		
			<rect x="27.611" y="16.188" transform="matrix(0.9955 -0.0943 0.0943 0.9955 -3.5634 4.7146)" fill="#FFFFFF" stroke="#000000" stroke-miterlimit="10" width="40.976" height="47.741"/>
		<rect x="29.925" y="20.356" transform="matrix(0.9955 -0.0943 0.0943 0.9955 -3.2495 4.6514)" width="35.335" height="32.706"/>
	</g>
	<g>
		
			<rect x="28.271" y="16.318" transform="matrix(0.9901 0.1407 -0.1407 0.9901 6.1402 -6.461)" fill="#FFFFFF" stroke="#000000" stroke-miterlimit="10" width="40.975" height="47.743"/>
		<rect x="31.38" y="20.459" transform="matrix(0.99 0.1407 -0.1407 0.99 5.6682 -6.5358)" width="35.338" height="32.707"/>
	</g>
	<g>
		
			<rect x="32.091" y="15.532" transform="matrix(0.9676 0.2526 -0.2526 0.9676 11.6571 -12.0026)" fill="#FFFFFF" stroke="#000000" stroke-miterlimit="10" width="40.976" height="47.741"/>
		<rect x="35.583" y="19.729" transform="matrix(0.9676 0.2525 -0.2525 0.9676 10.838 -12.2784)" width="35.337" height="32.706"/>
	</g>
	<path fill="#FFFFFF" stroke="#000000" stroke-miterlimit="10" d="M41.913,17.755c0.257-0.399,30.515,7.07,30.215,8.822
		c-0.646,3.781-2.807,11.679-3.424,13.736c-0.905,3.009-3.518,14.604-5.259,14.105c-1.74-0.5,1.729-9.93,3.052-14.803
		c0.846-3.118,3.075-8.43,1.903-11.657C67.171,24.572,40.14,20.5,41.913,17.755z"/>
</g>
</svg>
