<?xml version="1.0" encoding="utf-8"?>
<!-- Generator: Adobe Illustrator 15.0.0, SVG Export Plug-In . SVG Version: 6.00 Build 0)  -->
<!DOCTYPE svg PUBLIC "-//W3C//DTD SVG 1.1//EN" "http://www.w3.org/Graphics/SVG/1.1/DTD/svg11.dtd">
<svg version="1.1" id="Layer_1" xmlns="http://www.w3.org/2000/svg" xmlns:xlink="http://www.w3.org/1999/xlink" x="0px" y="0px"
	 width="83.823px" height="69.118px" viewBox="0 0 83.823 69.118" enable-background="new 0 0 83.823 69.118" xml:space="preserve">
<g>
	<g>
		<g>
			<path fill="#FFFFFF" stroke="#36A9E1" stroke-miterlimit="10" d="M43.878,19.709c0.278-0.245,0.702-0.216,0.945,0.063
				l11.475,13.131c0.244,0.277,0.216,0.701-0.063,0.945L39.295,48.65c-0.278,0.243-0.701,0.215-0.944-0.064l-11.476-13.13
				c-0.243-0.279-0.214-0.701,0.065-0.946L43.878,19.709z"/>
			
				<line fill="#FFFFFF" stroke="#36A9E1" stroke-width="0.25" stroke-miterlimit="10" x1="40.594" y1="45.457" x2="30.668" y2="34.098"/>
			
				<line fill="#FFFFFF" stroke="#36A9E1" stroke-width="0.25" stroke-miterlimit="10" x1="42.14" y1="44.107" x2="32.216" y2="32.746"/>
			
				<line fill="#FFFFFF" stroke="#36A9E1" stroke-width="0.25" stroke-miterlimit="10" x1="43.62" y1="42.813" x2="33.694" y2="31.454"/>
			
				<line fill="#FFFFFF" stroke="#36A9E1" stroke-width="0.25" stroke-miterlimit="10" x1="45.166" y1="41.463" x2="35.241" y2="30.102"/>
		</g>
		
			<line fill="#FFFFFF" stroke="#36A9E1" stroke-width="0.25" stroke-miterlimit="10" x1="46.645" y1="40.171" x2="36.719" y2="28.81"/>
		
			<line fill="#FFFFFF" stroke="#36A9E1" stroke-width="0.25" stroke-miterlimit="10" x1="48.192" y1="38.819" x2="38.263" y2="27.459"/>
		
			<line fill="#FFFFFF" stroke="#36A9E1" stroke-width="0.25" stroke-miterlimit="10" x1="49.67" y1="37.527" x2="39.743" y2="26.168"/>
		
			<line fill="#FFFFFF" stroke="#36A9E1" stroke-width="0.25" stroke-miterlimit="10" x1="51.214" y1="36.177" x2="41.289" y2="24.816"/>
		
			<line fill="#FFFFFF" stroke="#36A9E1" stroke-width="0.25" stroke-miterlimit="10" x1="52.628" y1="34.944" x2="42.7" y2="23.583"/>
		
			<line fill="#FFFFFF" stroke="#36A9E1" stroke-width="0.25" stroke-miterlimit="10" x1="54.173" y1="33.592" x2="44.247" y2="22.232"/>
	</g>
	<g>
		<g>
			<path fill="#FFFFFF" stroke="#36A9E1" stroke-miterlimit="10" d="M43.455,20.152c0.258-0.265,0.682-0.271,0.946-0.014
				L56.91,32.293c0.265,0.256,0.271,0.679,0.014,0.946L41.247,49.372c-0.258,0.267-0.682,0.271-0.946,0.014l-12.508-12.15
				c-0.266-0.26-0.272-0.684-0.014-0.949L43.455,20.152z"/>
			<g>
				<line fill="#FFFFFF" x1="43.712" y1="44.611" x2="32.892" y2="34.098"/>
				<g>
					<path fill="#36A9E1" d="M44.317,44.581c-3.607-3.504-7.214-7.009-10.82-10.514c-0.258-0.25-1.34-0.066-1.209,0.062
						c3.607,3.504,7.214,7.009,10.82,10.514C43.366,44.893,44.448,44.708,44.317,44.581L44.317,44.581z"/>
				</g>
			</g>
			<g>
				<line fill="#FFFFFF" x1="45.081" y1="43.202" x2="34.26" y2="32.689"/>
				<g>
					<path fill="#36A9E1" d="M45.632,43.141c-3.606-3.504-7.213-7.008-10.82-10.513c-0.241-0.234-1.444-0.209-1.103,0.122
						c3.606,3.504,7.213,7.008,10.82,10.513C44.771,43.498,45.973,43.473,45.632,43.141L45.632,43.141z"/>
				</g>
			</g>
			<g>
				<line fill="#FFFFFF" x1="46.511" y1="41.729" x2="35.692" y2="31.218"/>
				<g>
					<path fill="#36A9E1" d="M46.914,41.565c-3.606-3.504-7.213-7.008-10.819-10.512c-0.364-0.354-1.393-0.242-0.805,0.329
						c3.606,3.504,7.213,7.008,10.819,10.512C46.473,42.248,47.501,42.136,46.914,41.565L46.914,41.565z"/>
				</g>
			</g>
		</g>
		<g>
			<line fill="#FFFFFF" x1="47.88" y1="40.32" x2="37.06" y2="29.808"/>
			<g>
				<path fill="#36A9E1" d="M48.359,40.114c-3.607-3.504-7.213-7.008-10.82-10.513c-0.358-0.349-1.497-0.113-0.957,0.412
					c3.607,3.504,7.213,7.008,10.82,10.513C47.76,40.875,48.899,40.639,48.359,40.114L48.359,40.114z"/>
			</g>
		</g>
		<g>
			<line fill="#FFFFFF" x1="49.312" y1="38.848" x2="38.492" y2="28.336"/>
			<g>
				<path fill="#36A9E1" d="M49.839,38.537c-3.607-3.504-7.214-7.008-10.82-10.512c-0.373-0.362-1.475,0.214-1.055,0.622
					c3.607,3.504,7.214,7.008,10.82,10.512C49.157,39.521,50.259,38.945,49.839,38.537L49.839,38.537z"/>
			</g>
		</g>
		<g>
			<line fill="#FFFFFF" x1="50.679" y1="37.442" x2="39.859" y2="26.928"/>
			<g>
				<path fill="#36A9E1" d="M51.149,37.118c-3.607-3.505-7.214-7.01-10.82-10.515c-0.521-0.506-1.521,0.083-0.939,0.648
					c3.607,3.505,7.214,7.01,10.82,10.515C50.73,38.272,51.731,37.684,51.149,37.118L51.149,37.118z"/>
			</g>
		</g>
		<g>
			<line fill="#FFFFFF" x1="52.111" y1="35.969" x2="41.29" y2="25.454"/>
			<g>
				<path fill="#36A9E1" d="M51.896,35.578c-3.607-3.505-7.214-7.01-10.821-10.515c-0.365-0.355,0.305,0.659,0.431,0.781
					c3.607,3.505,7.214,7.01,10.821,10.515C52.691,36.714,52.021,35.7,51.896,35.578L51.896,35.578z"/>
			</g>
		</g>
		<g>
			<line fill="#FFFFFF" x1="53.417" y1="34.623" x2="42.596" y2="24.11"/>
			<g>
				<path fill="#36A9E1" d="M53.966,34.647c-3.606-3.504-7.213-7.008-10.82-10.513c-0.215-0.209-1.377-0.318-1.099-0.048
					c3.606,3.504,7.213,7.008,10.82,10.513C53.083,34.808,54.244,34.917,53.966,34.647L53.966,34.647z"/>
			</g>
		</g>
	</g>
</g>
</svg>
