<?xml version="1.0" encoding="utf-8"?>
<!-- Generator: Adobe Illustrator 15.0.0, SVG Export Plug-In . SVG Version: 6.00 Build 0)  -->
<!DOCTYPE svg PUBLIC "-//W3C//DTD SVG 1.1//EN" "http://www.w3.org/Graphics/SVG/1.1/DTD/svg11.dtd">
<svg version="1.1" id="Layer_1" xmlns="http://www.w3.org/2000/svg" xmlns:xlink="http://www.w3.org/1999/xlink" x="0px" y="0px"
	 width="237.5px" height="165.625px" viewBox="0 0 237.5 165.625" enable-background="new 0 0 237.5 165.625" xml:space="preserve">
<g>
	<path fill="#FFFFFF" d="M207.417,113.104c0,2.072,0,29.979,0,29.979s-20.428-22.476-22.5-22.476H33.92
		c-4.145,0-7.504-3.359-7.504-7.504V29.112c0-4.145,3.359-7.504,7.504-7.504h165.992c4.145,0,7.504,3.359,7.504,7.504V113.104z"/>
</g>
<rect x="37.373" y="66.62" fill="none" width="161.044" height="49.114"/>
<text transform="matrix(1 0 0 1 37.3726 75.1875)" display="none"><tspan x="0" y="0" display="inline" fill="#575756" font-family="'HelveticaNeue'" font-size="12">Versleep het vergrootglas op </tspan><tspan x="0" y="14.4" display="inline" fill="#575756" font-family="'HelveticaNeue'" font-size="12">het icoon voor meer informa</tspan><tspan x="151.137" y="14.4" display="inline" fill="#575756" font-family="'HelveticaNeue'" font-size="12">-</tspan><tspan x="0" y="28.8" display="inline" fill="#575756" font-family="'HelveticaNeue'" font-size="12">tie over dit kunstwerk.</tspan></text>
<rect x="26.417" y="21.608" fill="#36A9E1" width="181" height="32.939"/>
<text transform="matrix(1 0 0 1 47.3726 54.5479)" fill="#FFFFFF" font-family="'HelveticaNeue-BoldItalic'" font-size="36">i</text>
</svg>
