<?xml version="1.0" encoding="utf-8"?>
<!-- Generator: Adobe Illustrator 15.0.0, SVG Export Plug-In . SVG Version: 6.00 Build 0)  -->
<!DOCTYPE svg PUBLIC "-//W3C//DTD SVG 1.1//EN" "http://www.w3.org/Graphics/SVG/1.1/DTD/svg11.dtd">
<svg version="1.1" id="Layer_1" xmlns="http://www.w3.org/2000/svg" xmlns:xlink="http://www.w3.org/1999/xlink" x="0px" y="0px"
	 width="103.03px" height="66.667px" viewBox="0 0 103.03 66.667" enable-background="new 0 0 103.03 66.667" xml:space="preserve">
<g>
	<path d="M89.93,14.676c-4.725-2.03-9.763-3.017-15.402-3.017c-6.951,0-13.973,1.509-20.763,2.967
		c-6.704,1.44-13.636,2.929-20.407,2.929c-5.406,0-10.226-0.942-14.736-2.879l-1.178-0.506v35.877l0.511,0.219
		c4.725,2.03,9.762,3.016,15.4,3.016h0.003c6.951,0,13.971-1.508,20.76-2.966c6.705-1.44,13.638-2.929,20.41-2.929
		c5.406,0,10.226,0.941,14.736,2.879l1.178,0.506V14.896L89.93,14.676z M88.752,48.231c-4.385-1.704-9.051-2.534-14.225-2.534
		c-6.951,0-13.974,1.508-20.764,2.967c-6.704,1.439-13.635,2.928-20.406,2.929h-0.003c-5.201,0-9.859-0.872-14.222-2.665V16.71
		c4.383,1.704,9.051,2.535,14.225,2.535c6.951,0,13.973-1.508,20.762-2.967c6.705-1.44,13.637-2.929,20.408-2.929
		c5.201,0,9.861,0.872,14.225,2.664V48.231z"/>
	<path fill="#003A78" d="M35.762,27.5c0.284-0.109,0.549-0.197,0.812-0.241c0.264-0.044,0.55-0.066,0.856-0.066
		c2.329,0,4.085,1.955,4.085,4.59c0,2.483-1.669,5.887-5.952,5.887h-1.23l-0.659,4.744h-1.867l1.757-12.476
		c-0.988,0.725-1.471,1.801-1.648,1.801c-0.065,0-0.087-0.043-0.087-0.132c0-0.68,0.9-2.196,1.911-2.987l0.505-3.625h1.867
		L35.762,27.5z M34.553,36.088h0.9c2.877,0,4.152-2.372,4.152-4.305c0-2.217-1.384-3.184-2.812-3.184
		c-0.483,0-0.703,0.043-1.229,0.286L34.553,36.088z"/>
	<path fill="#010202" d="M34.042,42.836h-2.72l1.652-11.73c-0.145,0.179-0.267,0.35-0.37,0.493
		c-0.252,0.351-0.403,0.563-0.688,0.563c-0.246,0-0.51-0.173-0.51-0.554c0-0.835,0.924-2.35,1.938-3.209l0.533-3.824h2.721
		l-0.324,2.316c0.075-0.019,0.153-0.035,0.231-0.048c0.284-0.047,0.596-0.072,0.925-0.072c2.57,0,4.508,2.155,4.508,5.013
		c0,1.497-0.535,3.006-1.465,4.142c-0.812,0.989-2.321,2.167-4.91,2.167h-0.862L34.042,42.836z"/>
	<path fill="#010202" d="M32.293,41.991h1.014l0.659-4.744h1.598c1.787,0,3.259-0.642,4.256-1.857
		c0.797-0.974,1.274-2.321,1.274-3.605c0-2.377-1.574-4.169-3.663-4.169c-0.283,0-0.548,0.02-0.787,0.06
		c-0.25,0.042-0.509,0.134-0.731,0.219l-0.669,0.257l0.384-2.733h-1.015l-0.478,3.429L34,28.953
		c-0.217,0.169-0.427,0.376-0.62,0.597l0.743-0.544L32.293,41.991z"/>
	<path fill="#010202" d="M35.453,36.51h-1.386l1.11-7.913l0.209-0.097c0.568-0.26,0.844-0.324,1.406-0.324
		c1.609,0,3.234,1.116,3.234,3.607c0,1.145-0.397,2.29-1.091,3.144C38.35,35.649,37.269,36.51,35.453,36.51"/>
	<line fill="#FFFFFF" x1="35.039" y1="35.666" x2="35.453" y2="35.666"/>
	<path fill="#FFFFFF" d="M35.453,35.666c1.174,0,2.151-0.439,2.828-1.271c0.573-0.706,0.901-1.658,0.901-2.61
		c0-2.038-1.234-2.764-2.389-2.764c-0.346,0-0.511,0.018-0.844,0.156"/>
	<path fill="#003A78" d="M55.17,37.362h-1.867l1.384-9.862h1.866L55.17,37.362z M57.037,24.403c0,0.593-0.484,1.077-1.076,1.077
		c-0.594,0-1.077-0.483-1.077-1.077s0.483-1.077,1.077-1.077C56.553,23.327,57.037,23.81,57.037,24.403"/>
	<path fill="#010202" d="M55.537,37.785h-2.72l1.502-10.708h2.72L55.537,37.785z M55.961,25.901c-0.826,0-1.499-0.672-1.499-1.498
		c0-0.827,0.673-1.499,1.499-1.499s1.498,0.671,1.498,1.499C57.459,25.229,56.787,25.901,55.961,25.901"/>
	<path fill="#003A78" d="M73.861,28.95h-1.979l-0.943,5.404C70.72,35.605,71.005,36,71.905,36c0.55,0,0.988-0.131,1.802-0.593
		l-0.11,1.823c-0.79,0.33-1.317,0.439-2.042,0.439c-1.934,0-2.834-1.23-2.571-2.746l1.034-5.974h-1.736l0.22-1.45h1.8l0.374-2.02
		h1.845l-0.35,2.02h1.888L73.861,28.95z"/>
	<path fill="#010202" d="M71.555,38.092c-1.348,0-2.079-0.533-2.457-0.982c-0.492-0.586-0.682-1.389-0.529-2.258l0.946-5.479H67.79
		l0.347-2.294h1.813l0.374-2.021h2.697l-0.35,2.021h1.869l-0.312,2.294h-1.99l-0.883,5.053c-0.125,0.717-0.037,0.95,0.025,1.025
		c0.088,0.105,0.334,0.127,0.524,0.127c0.427,0,0.792-0.083,1.593-0.538l0.677-0.384l-0.173,2.863l-0.243,0.101
		C72.924,37.969,72.346,38.092,71.555,38.092"/>
</g>
</svg>
