<?xml version="1.0" encoding="utf-8"?>
<!-- Generator: Adobe Illustrator 15.0.0, SVG Export Plug-In . SVG Version: 6.00 Build 0)  -->
<!DOCTYPE svg PUBLIC "-//W3C//DTD SVG 1.1//EN" "http://www.w3.org/Graphics/SVG/1.1/DTD/svg11.dtd">
<svg version="1.1" id="Layer_1" xmlns="http://www.w3.org/2000/svg" xmlns:xlink="http://www.w3.org/1999/xlink" x="0px" y="0px"
	 width="77.333px" height="68.667px" viewBox="0 0 77.333 68.667" enable-background="new 0 0 77.333 68.667" xml:space="preserve">
<polygon points="32.837,22.083 28.516,6.292 24.088,21.738 21.738,23.677 21.738,49.694 31.075,54.046 60.496,45.208 60.496,28.849 
	54.613,22.728 34.948,27.321 34.948,24.152 "/>
<g>
	<g>
		<path fill="#FFFFFF" d="M40.598,30.709v1.436c0,0-0.057,1.548-0.478,2.336c-0.423,0.788-1.409,1.858-1.409,3.208
			c0,1.353,1.098,3.464,3.295,3.464c2.195,0,3.208-1.972,3.208-3.35c0-1.381-1.091-2.602-1.38-3.492
			c-0.309-0.957-0.393-2.11-0.393-2.11v-1.633l-0.732-0.901h-1.322L40.598,30.709z"/>
	</g>
</g>
<line fill="none" stroke="#FFFFFF" stroke-width="0.8" x1="41.712" y1="48.017" x2="41.712" y2="45.029"/>
<line fill="none" stroke="#FFFFFF" stroke-width="0.8" x1="54.072" y1="37.088" x2="51.084" y2="37.088"/>
<line fill="none" stroke="#FFFFFF" stroke-width="0.8" x1="32.854" y1="37.088" x2="29.866" y2="37.088"/>
<line fill="none" stroke="#FFFFFF" stroke-width="0.8" x1="50.931" y1="45.148" x2="48.818" y2="43.035"/>
<line fill="none" stroke="#FFFFFF" stroke-width="0.8" x1="35.192" y1="31.659" x2="33.08" y2="29.546"/>
<line fill="none" stroke="#FFFFFF" stroke-width="0.8" x1="33.308" y1="45.148" x2="35.421" y2="43.035"/>
<line fill="none" stroke="#FFFFFF" stroke-width="0.8" x1="49.129" y1="31.492" x2="51.242" y2="29.379"/>
</svg>
