<?xml version="1.0" encoding="utf-8"?>
<!-- Generator: Adobe Illustrator 15.0.0, SVG Export Plug-In . SVG Version: 6.00 Build 0)  -->
<!DOCTYPE svg PUBLIC "-//W3C//DTD SVG 1.1//EN" "http://www.w3.org/Graphics/SVG/1.1/DTD/svg11.dtd">
<svg version="1.1" id="Layer_1" xmlns="http://www.w3.org/2000/svg" xmlns:xlink="http://www.w3.org/1999/xlink" x="0px" y="0px"
	 width="135.353px" height="105.05px" viewBox="0 0 135.353 105.05" enable-background="new 0 0 135.353 105.05"
	 xml:space="preserve">
<g>
	<g>
		<path d="M40.116,77.036v-2.252h-1.958v2.252h-1.051v-5.022h1.051v1.902h1.958v-1.902h1.05v5.022H40.116z"/>
		<path d="M43.779,77.135c-1.056,0-1.665-0.497-1.665-1.358v-2.462h0.979v2.329c0,0.428,0.244,0.664,0.692,0.664
			c0.469,0,0.714-0.223,0.714-0.635v-2.358h0.979v2.42C45.478,76.652,44.89,77.135,43.779,77.135z"/>
		<path d="M46.416,72.873v-0.908h0.979v0.908H46.416z M46.416,77.036v-3.722h0.979v3.722H46.416z"/>
		<path d="M49.848,77.135c-0.525,0-0.959-0.119-1.294-0.352c-0.3-0.208-0.399-0.405-0.471-0.937h1.01
			c0.013,0.378,0.265,0.546,0.804,0.546c0.377,0,0.63-0.154,0.63-0.385c0-0.063-0.035-0.141-0.085-0.176
			c-0.111-0.091-0.355-0.166-0.623-0.215l-0.355-0.063c-0.314-0.057-0.708-0.218-0.916-0.371c-0.211-0.161-0.329-0.421-0.329-0.721
			c0-0.79,0.579-1.246,1.574-1.246c0.468,0,0.854,0.099,1.146,0.308c0.266,0.189,0.363,0.386,0.454,0.924h-0.958
			c-0.028-0.147-0.042-0.189-0.096-0.272c-0.086-0.14-0.288-0.217-0.575-0.217c-0.386,0-0.588,0.127-0.588,0.35
			c0,0.077,0.029,0.14,0.077,0.175c0.118,0.092,0.351,0.175,0.728,0.237l0.251,0.042c0.33,0.057,0.714,0.211,0.938,0.38
			c0.217,0.16,0.337,0.419,0.337,0.732C51.506,76.658,50.883,77.135,49.848,77.135z"/>
		<path d="M56.163,77.036h-1.03l-1.335-3.722h1.092l0.77,2.735l0.015,0.007l0.79-2.742h1.042L56.163,77.036z"/>
		<path d="M59.736,77.135c-1.155,0-1.902-0.771-1.902-1.96s0.747-1.959,1.902-1.959c1.153,0,1.902,0.77,1.902,1.951
			C61.638,76.364,60.896,77.135,59.736,77.135z M59.736,74.043c-0.581,0-0.896,0.397-0.896,1.132s0.315,1.133,0.896,1.133
			s0.895-0.398,0.895-1.133S60.317,74.043,59.736,74.043z"/>
		<path d="M64.007,77.135c-1.156,0-1.903-0.771-1.903-1.96s0.747-1.959,1.903-1.959c1.153,0,1.903,0.77,1.903,1.951
			C65.911,76.364,65.168,77.135,64.007,77.135z M64.007,74.043c-0.58,0-0.896,0.397-0.896,1.132s0.315,1.133,0.896,1.133
			s0.896-0.398,0.896-1.133S64.587,74.043,64.007,74.043z"/>
		<path d="M68.504,74.209c-0.638,0-0.938,0.281-0.938,0.89v1.938h-0.979v-3.722h0.938v0.644h0.012
			c0.119-0.218,0.154-0.274,0.246-0.393c0.183-0.23,0.447-0.35,0.763-0.35c0.055,0,0.071,0,0.188,0.014h0.014v0.993
			C68.677,74.216,68.6,74.209,68.504,74.209z"/>
		<path d="M73.727,77.036v-0.489c-0.238,0.391-0.623,0.588-1.085,0.588c-0.959,0-1.601-0.785-1.601-2.003
			c0-1.146,0.642-1.916,1.578-1.916c0.47,0,0.869,0.253,1.107,0.588v-0.489h0.938v3.722H73.727z M72.866,74.043
			c-0.531,0-0.818,0.419-0.818,1.175c0,0.685,0.308,1.09,0.818,1.09c0.518,0,0.84-0.434,0.84-1.146
			C73.706,74.482,73.376,74.043,72.866,74.043z"/>
		<path d="M77.747,74.644c-0.091-0.428-0.278-0.601-0.629-0.601c-0.531,0-0.798,0.391-0.798,1.175c0,0.727,0.252,1.111,0.742,1.111
			c0.372,0,0.643-0.258,0.679-0.65h0.993c-0.14,0.938-0.749,1.456-1.714,1.456c-1.085,0-1.706-0.687-1.706-1.896
			c0-1.273,0.649-2.022,1.762-2.022c0.504,0,0.945,0.161,1.238,0.447c0.125,0.119,0.23,0.267,0.301,0.435
			c0.062,0.153,0.092,0.266,0.127,0.546H77.747z"/>
		<path d="M80.599,74.015v3.021H79.62v-3.021h-0.511v-0.7h0.511v-1.008h0.979v1.008h0.581v0.7H80.599z"/>
		<path d="M83.411,77.135c-1.057,0-1.666-0.497-1.666-1.358v-2.462h0.98v2.329c0,0.428,0.244,0.664,0.692,0.664
			c0.47,0,0.714-0.223,0.714-0.635v-2.358h0.979v2.42C85.111,76.652,84.523,77.135,83.411,77.135z"/>
		<path d="M86.703,75.441c0.07,0.637,0.322,0.908,0.854,0.908c0.327,0,0.553-0.138,0.65-0.405h1.008
			c-0.141,0.398-0.225,0.554-0.449,0.756c-0.308,0.294-0.72,0.435-1.23,0.435c-1.162,0-1.812-0.707-1.812-1.974
			c0-1.217,0.657-1.945,1.771-1.945c1.154,0,1.763,0.729,1.763,2.105v0.12H86.703z M87.479,74.021c-0.217,0-0.398,0.076-0.531,0.216
			c-0.119,0.133-0.168,0.273-0.217,0.566h1.52C88.18,74.28,87.919,74.021,87.479,74.021z"/>
		<path d="M89.934,77.036v-5.022h0.979v5.022H89.934z"/>
		<path d="M92.535,75.441c0.07,0.637,0.323,0.908,0.854,0.908c0.328,0,0.553-0.138,0.649-0.405h1.008
			c-0.14,0.398-0.223,0.554-0.448,0.756c-0.308,0.294-0.719,0.435-1.231,0.435c-1.16,0-1.812-0.707-1.812-1.974
			c0-1.217,0.658-1.945,1.771-1.945c1.154,0,1.762,0.729,1.762,2.105v0.12H92.535z M93.311,74.021c-0.217,0-0.398,0.076-0.53,0.216
			c-0.119,0.133-0.169,0.273-0.218,0.566h1.518C94.01,74.28,93.752,74.021,93.311,74.021z"/>
		<path d="M99.982,77.036l-0.888-1.595l-0.405,0.419v1.176h-0.979v-5.022h0.979v2.715l1.229-1.414h1.204l-1.315,1.44l1.351,2.281
			H99.982z"/>
		<path d="M103.234,77.135c-1.057,0-1.666-0.497-1.666-1.358v-2.462h0.979v2.329c0,0.428,0.246,0.664,0.693,0.664
			c0.469,0,0.715-0.223,0.715-0.635v-2.358h0.979v2.42C104.934,76.652,104.346,77.135,103.234,77.135z"/>
		<path d="M108.226,77.036v-2.259c0-0.52-0.188-0.734-0.622-0.734c-0.484,0-0.784,0.327-0.784,0.859v2.134h-0.979v-3.722h0.937
			v0.545h0.007c0.155-0.229,0.232-0.314,0.378-0.419c0.203-0.147,0.455-0.225,0.749-0.225c0.79,0,1.296,0.489,1.296,1.246v2.574
			H108.226z"/>
		<path d="M111.63,77.135c-0.523,0-0.959-0.119-1.294-0.352c-0.3-0.208-0.398-0.405-0.469-0.937h1.008
			c0.014,0.378,0.267,0.546,0.805,0.546c0.377,0,0.629-0.154,0.629-0.385c0-0.063-0.033-0.141-0.084-0.176
			c-0.11-0.091-0.355-0.166-0.621-0.215l-0.358-0.063c-0.314-0.057-0.705-0.218-0.916-0.371c-0.209-0.161-0.328-0.421-0.328-0.721
			c0-0.79,0.581-1.246,1.573-1.246c0.47,0,0.854,0.099,1.148,0.308c0.266,0.189,0.363,0.386,0.455,0.924h-0.961
			c-0.027-0.147-0.041-0.189-0.096-0.272c-0.084-0.14-0.287-0.217-0.574-0.217c-0.385,0-0.588,0.127-0.588,0.35
			c0,0.077,0.028,0.14,0.076,0.175c0.119,0.092,0.351,0.175,0.729,0.237l0.252,0.042c0.328,0.057,0.713,0.211,0.938,0.38
			c0.218,0.16,0.336,0.419,0.336,0.732C113.29,76.658,112.667,77.135,111.63,77.135z"/>
		<path d="M115.183,74.015v3.021h-0.979v-3.021h-0.512v-0.7h0.512v-1.008h0.979v1.008h0.581v0.7H115.183z"/>
	</g>
	<path d="M26.735,41.613l15.417-26.625H17.973l2.488,4.305h12.852l-15.34,26.488h24.179l-2.413-4.168H26.735L26.735,41.613z
		 M53.399,41.693l6.55-11.309H35.773l2.485,4.309h12.853l-6.417,11.078l3.169,5.485l2.688-4.651c1.688,0.958,2.83,2.767,2.83,4.838
		c0,3.074-2.493,5.565-5.564,5.565c-3.077,0-5.568-2.491-5.568-5.565h-5.563c0.072,6.088,5.025,10.994,11.132,10.994
		c6.143,0,11.128-4.979,11.128-11.126C58.944,47.205,56.714,43.621,53.399,41.693L53.399,41.693z M77.577,41.693l6.553-11.309
		H60.623l2.486,4.309h12.175L68.87,45.771l3.17,5.485l2.693-4.651c1.689,0.958,2.822,2.767,2.822,4.838
		c0,3.074-2.492,5.565-5.562,5.565c-3.074,0-5.566-2.491-5.566-5.565h-5.562c0.07,6.088,5.022,10.994,11.128,10.994
		c6.147,0,11.129-4.979,11.129-11.126C83.122,47.205,80.889,43.621,77.577,41.693L77.577,41.693z"/>
</g>
</svg>
